<?xml version="1.0" standalone="no"?>
<!DOCTYPE svg PUBLIC "-//W3C//DTD SVG 20010904//EN"
 "http://www.w3.org/TR/2001/REC-SVG-20010904/DTD/svg10.dtd">
<svg version="1.0" xmlns="http://www.w3.org/2000/svg"
 width="60.000000pt" height="82.000000pt" viewBox="0 0 60.000000 82.000000"
 preserveAspectRatio="xMidYMid meet">
<metadata>
</metadata>
<g transform="translate(0.000000,82.000000) scale(0.100000,-0.100000)"
fill="#ff686b" stroke="none">
<path d="M377 791 c-8 -40 -33 -71 -56 -71 -10 0 -5 -9 16 -26 21 -16 35 -37
39 -62 l7 -37 9 35 c5 19 23 47 41 63 20 17 26 27 16 27 -22 0 -46 29 -56 70
l-9 35 -7 -34z m22 -97 c-14 -14 -17 -14 -29 0 -10 13 -10 19 0 32 12 14 15
14 29 0 14 -15 14 -17 0 -32z"/>
<path d="M356 580 c-43 -13 -85 -59 -97 -105 -24 -95 -52 -130 -130 -159 -25
-9 -59 -30 -74 -46 -24 -26 -30 -40 -33 -93 -4 -72 16 -114 70 -147 32 -19
118 -28 118 -12 0 4 11 12 25 18 21 10 25 9 30 -7 8 -23 51 -25 82 -4 11 8 26
35 32 61 17 66 57 113 117 140 68 30 84 54 84 124 0 112 -55 209 -130 230 -41
11 -54 11 -94 0z m112 -50 c64 -39 78 -135 28 -185 -13 -13 -42 -29 -65 -36
-61 -18 -126 -93 -141 -161 -13 -63 -31 -85 -82 -99 -75 -20 -154 44 -152 122
2 55 29 87 91 110 65 25 129 92 139 146 10 58 32 93 67 108 45 20 77 18 115
-5z m89 -168 c0 -35 -2 -38 -23 -34 -20 4 -21 6 -9 18 7 8 17 23 20 34 9 29
12 25 12 -18z m-48 -99 c1 -7 -6 -13 -15 -13 -10 0 -14 6 -10 15 3 8 0 15 -6
15 -6 0 -6 6 3 16 12 14 14 14 20 -3 4 -10 8 -24 8 -30z m33 32 c0 -5 -5 -11
-11 -13 -6 -2 -11 4 -11 13 0 9 5 15 11 13 6 -2 11 -8 11 -13z m-82 -30 c0 -8
-4 -15 -9 -15 -13 0 -22 16 -14 24 11 11 23 6 23 -9z m-47 -69 c-21 -24 -30
-29 -36 -20 -4 8 -14 17 -23 22 -13 7 -12 12 6 35 12 15 26 25 31 22 5 -4 9 0
9 7 1 7 9 3 20 -11 l20 -23 -27 -32z m-53 -32 c0 -9 -5 -14 -12 -12 -18 6 -21
28 -4 28 9 0 16 -7 16 -16z m1 -29 c11 8 1 -43 -12 -61 -5 -6 -6 -14 -2 -17 3
-4 1 -7 -5 -7 -18 0 -43 32 -38 47 3 8 6 23 6 34 0 17 3 18 20 9 11 -6 25 -8
31 -5z m-59 -90 c0 -5 -5 -11 -11 -13 -6 -2 -11 4 -11 13 0 9 5 15 11 13 6 -2
11 -8 11 -13z"/>
<path d="M352 508 c-30 -30 3 -77 40 -57 30 16 16 69 -17 69 -6 0 -16 -5 -23
-12z m46 -25 c5 -18 -28 -29 -38 -12 -5 7 -6 17 -3 22 7 12 35 5 41 -10z"/>
<path d="M432 407 c-15 -17 1 -42 23 -33 18 6 17 37 -1 43 -6 2 -16 -2 -22
-10z"/>
<path d="M280 335 c-11 -13 -11 -19 3 -32 21 -21 49 -9 45 19 -4 28 -30 35
-48 13z m38 -16 c-2 -6 -8 -10 -13 -10 -5 0 -11 4 -13 10 -2 6 4 11 13 11 9 0
15 -5 13 -11z"/>
<path d="M150 240 c0 -13 7 -20 20 -20 13 0 20 7 20 20 0 13 -7 20 -20 20 -13
0 -20 -7 -20 -20z m30 6 c0 -3 -4 -8 -10 -11 -5 -3 -10 -1 -10 4 0 6 5 11 10
11 6 0 10 -2 10 -4z"/>
<path d="M120 140 c0 -13 7 -20 20 -20 13 0 20 7 20 20 0 13 -7 20 -20 20 -13
0 -20 -7 -20 -20z m30 0 c0 -5 -4 -10 -10 -10 -5 0 -10 5 -10 10 0 6 5 10 10
10 6 0 10 -4 10 -10z"/>
<path d="M209 144 c-9 -11 -9 -18 -1 -26 14 -14 42 -3 42 16 0 20 -27 27 -41
10z"/>
<path d="M160 520 c0 -11 -9 -28 -20 -37 -19 -17 -19 -17 0 -30 11 -8 20 -25
20 -39 0 -13 5 -24 10 -24 6 0 10 11 10 24 0 14 9 31 20 39 19 13 19 13 0 30
-11 9 -20 26 -20 37 0 11 -4 20 -10 20 -5 0 -10 -9 -10 -20z m20 -50 c0 -5 -4
-10 -10 -10 -5 0 -10 5 -10 10 0 6 5 10 10 10 6 0 10 -4 10 -10z"/>
</g>
</svg>
