<?xml version="1.0" standalone="no"?>
<!DOCTYPE svg PUBLIC "-//W3C//DTD SVG 20010904//EN"
 "http://www.w3.org/TR/2001/REC-SVG-20010904/DTD/svg10.dtd">
<svg version="1.0" xmlns="http://www.w3.org/2000/svg"
 width="60.000000pt" height="82.000000pt" viewBox="0 0 60.000000 82.000000"
 preserveAspectRatio="xMidYMid meet">
<metadata>
</metadata>
<g transform="translate(0.000000,82.000000) scale(0.100000,-0.100000)"
fill="#ff686b" stroke="none">
<path d="M112 808 c-18 -18 -15 -30 19 -112 30 -72 30 -74 15 -118 -14 -42
-12 -93 3 -86 4 2 44 16 89 33 45 16 82 33 82 37 0 14 -62 68 -79 68 -12 0
-24 23 -46 93 -24 72 -34 93 -50 95 -11 1 -26 -3 -33 -10z m38 -28 c0 -11 -4
-20 -9 -20 -14 0 -23 18 -16 30 10 17 25 11 25 -10z m36 -93 c15 -49 24 -63
56 -83 44 -28 42 -38 -9 -59 -54 -23 -77 -20 -69 8 17 60 17 78 -3 131 -25 67
-24 63 -7 63 8 0 21 -24 32 -60z"/>
<path d="M230 507 c-81 -31 -85 -34 -88 -65 -2 -17 4 -70 13 -116 11 -61 12
-91 5 -111 -14 -37 -14 -37 23 -33 l32 3 0 62 c0 63 -10 88 -25 63 -12 -19
-22 40 -18 104 l3 49 69 27 70 28 25 -27 c23 -25 42 -55 85 -136 6 -11 17 -24
24 -28 7 -5 10 -13 6 -18 -4 -6 -11 -6 -20 2 -19 16 -44 4 -44 -21 0 -25 -24
-26 -42 -2 -7 10 -19 22 -26 26 -12 7 -12 4 -1 -15 33 -64 38 -68 70 -56 16 6
27 16 25 22 -21 50 -20 51 6 27 25 -22 26 -22 56 -5 18 10 32 20 32 23 0 3
-13 12 -28 21 -17 9 -44 45 -66 85 -35 64 -82 125 -95 123 -3 0 -44 -15 -91
-32z m-33 -279 c-2 -13 -4 -3 -4 22 0 25 2 35 4 23 2 -13 2 -33 0 -45z"/>
<path d="M235 277 c14 -37 25 -70 25 -72 0 -5 48 4 62 11 8 5 -11 76 -24 89
-6 7 -9 -3 -6 -29 2 -27 -1 -41 -11 -44 -10 -3 -12 0 -8 12 4 9 2 16 -3 16 -5
0 -12 11 -16 24 -3 14 -14 32 -25 42 -17 16 -17 11 6 -49z"/>
<path d="M357 173 c-14 -13 -7 -43 12 -53 23 -12 56 14 47 37 -3 8 -6 17 -6
19 0 7 -46 5 -53 -3z"/>
<path d="M329 94 c-9 -11 -9 -18 -1 -26 14 -14 42 -3 42 16 0 20 -27 27 -41
10z"/>
<path d="M417 94 c-8 -8 1 -24 14 -24 5 0 9 7 9 15 0 15 -12 20 -23 9z"/>
</g>
</svg>
