<?xml version="1.0" standalone="no"?>
<!DOCTYPE svg PUBLIC "-//W3C//DTD SVG 20010904//EN"
 "http://www.w3.org/TR/2001/REC-SVG-20010904/DTD/svg10.dtd">
<svg version="1.0" xmlns="http://www.w3.org/2000/svg"
 width="60.000000pt" height="82.000000pt" viewBox="0 0 60.000000 82.000000"
 preserveAspectRatio="xMidYMid meet">
<metadata>
</metadata>
<g transform="translate(0.000000,82.000000) scale(0.100000,-0.100000)"
fill="#ff686b" stroke="none">
<path d="M431 702 c-1 -14 -10 -26 -23 -32 l-23 -9 23 0 c16 -1 22 -7 23 -23
l0 -23 9 23 c6 13 18 22 32 23 22 1 22 1 -2 8 -14 4 -27 17 -31 31 -7 24 -7
24 -8 2z"/>
<path d="M530 653 c0 -6 -8 -14 -17 -16 -16 -4 -16 -5 -1 -6 9 0 19 -9 21 -18
4 -17 5 -17 6 0 0 9 9 17 19 18 13 0 14 2 2 6 -8 3 -18 11 -22 17 -6 8 -8 8
-8 -1z"/>
<path d="M85 630 c-3 -11 -3 -29 0 -40 5 -17 15 -20 65 -20 50 0 60 3 65 20 3
11 3 29 0 40 -5 17 -15 20 -65 20 -50 0 -60 -3 -65 -20z m105 -18 c0 -5 -18
-9 -40 -10 -22 -1 -40 3 -40 8 0 6 18 10 40 10 22 0 40 -4 40 -8z"/>
<path d="M304 632 c-6 -4 -13 -16 -16 -27 -3 -11 -9 -28 -13 -39 -7 -16 -6
-17 14 -7 25 14 87 17 120 6 22 -7 23 -5 16 27 -4 18 -9 36 -12 41 -5 9 -95 9
-109 -1z"/>
<path d="M446 589 c-5 -25 0 -35 34 -69 44 -44 65 -104 55 -159 -13 -70 -67
-131 -128 -146 -23 -6 -27 -13 -27 -42 0 -31 2 -34 23 -27 129 39 189 115 189
242 0 102 -40 179 -113 218 -26 13 -27 12 -33 -17z m76 -54 c9 -11 28 -48 42
-81 l25 -62 -20 -48 c-16 -40 -18 -43 -13 -15 16 86 -5 159 -60 212 -14 13
-26 28 -26 33 0 10 27 -11 52 -39z m9 -273 c-10 -19 -37 -44 -61 -57 -8 -4 3
11 25 34 43 45 51 50 36 23z"/>
<path d="M90 535 c0 -12 13 -15 60 -15 47 0 60 3 60 15 0 12 -13 15 -60 15
-47 0 -60 -3 -60 -15z"/>
<path d="M61 453 c-41 -46 -57 -80 -49 -104 2 -7 12 3 21 22 24 51 61 92 83
94 11 0 25 4 31 8 6 4 14 3 17 -2 3 -5 14 -7 24 -5 11 3 29 -10 53 -39 l37
-43 3 -126 c2 -70 1 -129 -3 -133 -11 -12 -234 -8 -257 4 -23 13 -26 9 -11
-20 10 -17 22 -19 145 -19 167 0 165 -2 165 145 -1 118 -13 159 -66 219 -37
42 -42 44 -96 45 -55 1 -57 0 -97 -46z"/>
<path d="M298 494 c-3 -3 9 -28 28 -56 30 -44 34 -58 34 -114 0 -35 3 -64 8
-64 16 0 66 40 78 62 8 13 13 43 14 67 0 36 -6 49 -34 77 -28 28 -41 34 -78
34 -25 0 -47 -3 -50 -6z m99 -36 c34 -17 47 -68 29 -112 -14 -34 -40 -51 -35
-23 6 31 -19 101 -51 141 -14 17 -13 18 10 12 14 -4 35 -12 47 -18z"/>
<path d="M484 446 c-8 -9 -7 -15 2 -23 9 -9 13 -9 17 1 8 20 -6 36 -19 22z"/>
</g>
</svg>
