<?xml version="1.0" standalone="no"?>
<!DOCTYPE svg PUBLIC "-//W3C//DTD SVG 20010904//EN"
 "http://www.w3.org/TR/2001/REC-SVG-20010904/DTD/svg10.dtd">
<svg version="1.0" xmlns="http://www.w3.org/2000/svg"
 width="60.000000pt" height="82.000000pt" viewBox="0 0 60.000000 82.000000"
 preserveAspectRatio="xMidYMid meet">
<metadata>
</metadata>
<g transform="translate(0.000000,82.000000) scale(0.100000,-0.100000)"
fill="#ff686b" stroke="none">
<path d="M77 712 c-10 -11 -17 -36 -17 -60 l0 -42 240 0 240 0 0 43 c0 75 -6
77 -242 77 -186 0 -206 -2 -221 -18z m283 -17 c-6 -8 -9 -23 -6 -33 5 -15 1
-21 -19 -24 -14 -3 -35 -3 -48 -1 -19 4 -23 11 -23 39 l1 34 54 0 c46 0 52 -2
41 -15z m90 11 c0 -9 -30 -14 -35 -6 -4 6 3 10 14 10 12 0 21 -2 21 -4z m-205
-37 c0 -23 -4 -24 -65 -24 -60 0 -64 1 -63 23 0 12 1 23 2 25 0 1 29 1 63 1
59 -2 63 -3 63 -25z m161 10 c10 -17 -13 -36 -27 -22 -12 12 -4 33 11 33 5 0
12 -5 16 -11z m70 0 c10 -17 -13 -36 -27 -22 -12 12 -4 33 11 33 5 0 12 -5 16
-11z m44 -24 c0 -8 -2 -15 -4 -15 -2 0 -6 7 -10 15 -3 8 -1 15 4 15 6 0 10 -7
10 -15z m-86 -11 c3 -8 2 -12 -4 -9 -6 3 -10 10 -10 16 0 14 7 11 14 -7z"/>
<path d="M60 367 c0 -185 2 -205 18 -220 16 -15 47 -17 224 -17 186 0 206 2
221 18 15 16 17 47 17 220 l0 202 -240 0 -240 0 0 -203z m458 -16 l-3 -196
-211 -3 -212 -2 -6 22 c-8 32 -7 125 3 176 5 23 5 45 0 48 -5 3 -9 39 -9 79
l0 75 220 -1 221 -2 -3 -196z"/>
<path d="M230 527 c-128 -47 -161 -223 -59 -318 16 -15 29 -25 29 -22 0 2 7
-3 16 -11 11 -12 35 -16 84 -16 49 0 73 4 84 16 9 8 16 13 16 10 0 -14 53 50
71 86 17 33 20 54 17 102 -3 33 -10 62 -16 64 -7 2 -12 8 -12 14 0 5 -16 24
-35 42 -48 45 -124 58 -195 33z m147 -28 c121 -59 123 -233 4 -296 -56 -29
-106 -29 -162 0 -118 63 -118 231 0 294 55 29 102 29 158 2z"/>
<path d="M222 480 c-95 -58 -95 -192 0 -250 93 -56 218 15 218 125 0 110 -125
181 -218 125z m141 -25 c40 -28 66 -96 47 -125 -8 -13 -15 -13 -57 4 -71 27
-128 31 -160 11 l-26 -17 7 37 c12 61 36 88 96 109 20 6 71 -4 93 -19z m-49
-134 c3 -5 22 -12 41 -15 19 -4 35 -11 35 -15 0 -11 -40 -46 -40 -35 0 5 -5 1
-11 -8 -11 -19 -89 -26 -89 -9 0 6 -13 18 -30 28 -33 19 -40 49 -12 56 31 8
101 7 106 -2z"/>
</g>
</svg>
