<?xml version="1.0" standalone="no"?>
<!DOCTYPE svg PUBLIC "-//W3C//DTD SVG 20010904//EN"
 "http://www.w3.org/TR/2001/REC-SVG-20010904/DTD/svg10.dtd">
<svg version="1.0" xmlns="http://www.w3.org/2000/svg"
 width="166.000000pt" height="60.000000pt" viewBox="0 0 166.000000 60.000000"
 preserveAspectRatio="xMidYMid meet">
<metadata>
</metadata>
<g transform="translate(0.000000,60.000000) scale(0.100000,-0.100000)"
fill="#ff686b" stroke="none">
<path d="M310 559 c-19 -6 -44 -14 -55 -19 -11 -4 -56 -11 -101 -14 -44 -3
-93 -10 -109 -16 -27 -10 -28 -12 -22 -65 3 -30 17 -76 31 -102 15 -29 30 -80
36 -128 7 -50 17 -85 27 -92 13 -10 14 -15 3 -28 -10 -12 -10 -18 1 -31 10
-12 24 -14 71 -9 54 7 58 6 58 -14 0 -32 45 -39 74 -12 20 19 30 21 78 15 50
-6 57 -4 71 16 12 18 22 21 45 17 16 -3 42 -2 58 2 25 6 29 12 29 42 0 33 -1
34 -37 31 -28 -2 -38 1 -38 11 0 18 -21 27 -61 27 -16 0 -29 5 -29 12 0 38 25
149 41 180 11 21 22 58 26 83 5 37 3 45 -10 45 -8 0 -24 11 -34 25 -14 19 -29
26 -68 29 -27 2 -66 0 -85 -5z m128 -23 c28 -17 10 -33 -40 -40 -95 -11 -200
-8 -192 7 6 9 5 9 -7 1 -13 -11 -85 -19 -134 -15 -17 1 -18 3 -4 11 8 5 51 10
95 11 46 2 89 8 102 16 13 8 37 15 53 15 16 1 32 4 34 8 5 8 75 -2 93 -14z
m39 -42 c-16 -17 -133 -34 -220 -33 -178 2 -171 15 10 20 114 3 176 8 184 16
7 7 16 10 21 7 5 -3 7 -8 5 -10z m17 -41 c-12 -50 -24 -74 -33 -69 -13 9 -33
-81 -36 -162 -1 -43 -8 -78 -15 -85 -10 -9 -11 -8 -7 8 4 11 9 34 12 50 3 21
0 17 -11 -13 -9 -23 -25 -47 -35 -53 -41 -21 -237 -10 -243 14 -2 7 -9 48 -16
92 -6 44 -16 85 -20 90 -5 6 -9 37 -11 70 l-2 60 34 -5 c51 -7 268 -4 313 5
l38 7 -7 -30 c-3 -16 -2 -33 3 -36 6 -3 13 14 16 39 4 25 12 45 17 45 5 0 6
-12 3 -27z m-435 -52 c6 -30 9 -56 7 -58 -5 -6 -36 93 -36 116 0 31 18 -5 29
-58z m453 -241 c9 -13 24 -20 46 -20 18 0 31 -4 27 -9 -3 -5 -1 -12 5 -16 23
-14 -4 -25 -61 -25 -43 0 -61 -4 -65 -15 -8 -20 -33 -26 -76 -16 -31 7 -43 5
-62 -10 -31 -24 -52 -24 -59 1 -4 17 -14 20 -71 20 -65 0 -76 6 -55 27 7 7 23
8 47 2 55 -13 106 -11 177 7 56 14 65 20 65 39 0 29 8 35 42 35 17 0 33 -8 40
-20z"/>
<path d="M680 505 c0 -8 5 -15 10 -15 6 0 10 7 10 15 0 8 -4 15 -10 15 -5 0
-10 -7 -10 -15z"/>
<path d="M1012 509 c2 -6 8 -10 13 -10 5 0 11 4 13 10 2 6 -4 11 -13 11 -9 0
-15 -5 -13 -11z"/>
<path d="M564 428 c14 -52 27 -83 36 -83 9 0 22 31 36 83 17 63 19 82 9 82 -8
0 -17 -24 -25 -65 -7 -36 -16 -65 -20 -65 -4 0 -13 29 -20 65 -8 41 -17 65
-25 65 -10 0 -8 -19 9 -82z"/>
<path d="M1305 425 l0 -85 43 0 c23 0 42 5 42 10 0 6 -13 10 -30 10 -27 0 -30
3 -30 30 0 25 4 30 25 30 14 0 25 5 25 10 0 6 -11 10 -25 10 -20 0 -25 5 -25
25 0 20 5 25 25 25 14 0 25 5 25 10 0 6 -17 10 -37 10 l-38 0 0 -85z"/>
<path d="M1420 425 c0 -50 4 -85 10 -85 6 0 10 16 10 35 0 19 5 35 10 35 6 0
18 -16 27 -35 16 -34 33 -46 33 -25 0 6 -6 23 -14 38 -12 24 -12 30 0 47 15
20 10 55 -10 67 -6 4 -23 8 -38 8 l-28 0 0 -85z m60 39 c0 -13 -9 -28 -20 -34
-18 -10 -20 -8 -20 29 0 34 2 38 20 34 13 -3 20 -14 20 -29z"/>
<path d="M1540 426 c0 -51 4 -86 10 -86 6 0 10 30 11 68 l1 67 31 -67 c18 -37
35 -67 40 -68 4 0 7 38 7 85 0 55 -4 85 -11 85 -7 0 -10 -20 -7 -55 1 -30 1
-55 -2 -55 -3 1 -16 24 -30 53 -39 79 -50 73 -50 -27z"/>
<path d="M839 462 c-39 -32 -23 -122 22 -122 27 0 33 18 7 22 -19 2 -24 10
-26 46 -2 24 1 43 7 43 26 3 30 4 36 10 15 16 -26 16 -46 1z"/>
<path d="M923 473 c-7 -3 -13 -9 -13 -14 0 -6 6 -9 13 -8 40 5 56 -27 16 -33
-56 -8 -48 -70 10 -76 l31 -3 0 53 c0 29 -4 58 -8 64 -9 14 -34 22 -49 17z
m37 -93 c0 -13 -7 -20 -20 -20 -13 0 -20 7 -20 20 0 13 7 20 20 20 13 0 20 -7
20 -20z"/>
<path d="M1205 466 c-23 -17 -27 -85 -6 -110 33 -40 74 -8 69 55 -4 52 -33 77
-63 55z m43 -65 c-2 -25 -8 -37 -20 -39 -15 -3 -18 4 -18 41 0 50 7 62 27 45
9 -7 13 -25 11 -47z"/>
<path d="M680 405 c0 -37 4 -65 10 -65 6 0 10 28 10 65 0 37 -4 65 -10 65 -6
0 -10 -28 -10 -65z"/>
<path d="M730 460 c0 -5 9 -10 20 -10 l20 0 -20 -40 c-29 -57 -27 -70 15 -70
19 0 35 5 35 10 0 6 -11 10 -25 10 -31 0 -31 5 0 55 14 22 25 43 25 48 0 4
-16 7 -35 7 -19 0 -35 -4 -35 -10z"/>
<path d="M1010 405 c0 -51 3 -65 15 -65 12 0 15 14 15 65 0 51 -3 65 -15 65
-12 0 -15 -14 -15 -65z"/>
<path d="M1070 405 c0 -46 4 -65 13 -65 9 0 12 17 12 58 0 44 3 57 15 57 11 0
16 -14 18 -57 2 -42 7 -58 17 -58 11 0 13 12 9 53 -8 75 -10 77 -49 77 l-35 0
0 -65z"/>
</g>
</svg>
